<svg width="2442" height="463" viewBox="0 0 2442 463" fill="none" xmlns="http://www.w3.org/2000/svg">
<path d="M0.498047 377.563L63.9346 316.681C88.924 350.647 141.471 378.834 206.192 378.834C258.739 378.834 295.902 360.252 295.902 321.805C295.902 224.403 4.96652 308.347 15.8691 135.964H16.5112C81.874 217.982 392.033 132.753 392.033 318.595C392.033 405.749 318.978 462.136 204.279 462.136C112.642 462.136 36.39 427.528 0.498047 377.55L0.498047 377.563ZM204.279 0.769738C298.483 0.769738 354.87 30.2407 392.675 79.5904L329.881 139.83C302.323 108.432 270.284 84.0851 204.279 84.0851C142.113 84.0851 113.284 103.309 113.284 134.064C113.284 141.114 115.211 148.806 117.766 153.287V153.93C90.8503 151.361 23.5611 140.472 23.5611 95.6166C23.5611 50.7616 88.924 0.769738 204.279 0.769738ZM434.333 315.41V7.1776H529.167V305.792C529.167 348.721 547.748 378.847 591.961 378.847C639.385 378.847 707.303 347.45 767.542 290.421L861.105 201.995H861.747V367.971C861.747 428.852 825.213 462.175 767.542 462.175V304.534C696.413 414.752 643.866 462.175 566.33 462.175C481.743 462.175 434.32 409.628 434.32 315.423L434.333 315.41ZM1037.34 84.072C989.917 84.072 921.999 115.469 861.76 172.498L768.197 261.566H767.555V94.9483C767.555 34.0671 804.089 0.74353 861.76 0.74353V158.385C932.888 48.1932 985.436 0.769738 1062.97 0.769738C1147.56 0.769738 1194.98 53.3169 1194.98 147.522V455.754H1100.15V157.127C1100.15 114.198 1081.57 84.072 1037.35 84.072H1037.34ZM1253.94 7.1776H1476.3C1569.86 7.1776 1635.87 41.1432 1635.87 116.111C1635.87 178.277 1586.53 223.774 1494.25 227.613V226.971C1519.88 214.156 1539.75 188.524 1539.75 154.559C1539.75 111.63 1508.99 87.2694 1464.14 87.2694H1348.8V455.741H1253.96V7.1776H1253.94ZM1371.85 246.837V246.195H1486.55C1602.53 246.195 1632.66 296.174 1632.66 359.623V455.741H1537.82V382.686C1537.82 310.274 1493.61 271.184 1371.85 246.837ZM1681.36 315.41V7.1776H1776.2V305.792C1776.2 348.721 1794.78 378.847 1838.99 378.847C1886.42 378.847 1954.33 347.45 2014.57 290.421L2108.14 201.995H2108.78V367.971C2108.78 428.852 2072.26 462.175 2014.57 462.175V304.534C1943.44 414.752 1890.9 462.175 1813.36 462.175C1728.77 462.175 1681.35 409.628 1681.35 315.423L1681.36 315.41ZM2284.37 84.072C2236.95 84.072 2169.03 115.469 2108.79 172.498L2015.23 261.566H2014.59V94.9483C2014.59 34.0671 2051.11 0.74353 2108.79 0.74353V158.385C2179.91 48.1932 2232.45 0.769738 2309.99 0.769738C2394.58 0.769738 2442 53.3169 2442 147.522V455.754H2347.17V157.127C2347.17 114.198 2328.58 84.072 2284.37 84.072Z" fill="black"/>
</svg>
