<?xml version="1.0" encoding="UTF-8"?>
<svg id="Layer_1" data-name="Layer 1" xmlns="http://www.w3.org/2000/svg" viewBox="0 0 144 77.82">
  <defs>
    <style>
      .cls-1 {
        fill: #ff3008;
        stroke-width: 0px;
      }
    </style>
  </defs>
  <path class="cls-1" d="M3.4,64.15v10.13h2.52c1.3-.02,2.54-.56,3.43-1.51.91-.96,1.4-2.24,1.38-3.56.04-1.33-.45-2.62-1.36-3.58-.9-.95-2.15-1.48-3.45-1.48h-2.52ZM5.92,60.97c4.7,0,8.26,3.65,8.26,8.24s-3.56,8.26-8.26,8.26H.36c-.22,0-.4-.19-.4-.41v-15.66c0-.23.18-.41.4-.41h5.56ZM26.3,74.64c2.14,0,4.06-1.31,4.88-3.33.82-2.02.38-4.34-1.13-5.91-1.48-1.55-3.77-2.02-5.75-1.19-1.97.83-3.26,2.81-3.27,5,0,2.99,2.35,5.41,5.26,5.43M26.3,60.6c4.95,0,8.73,3.91,8.73,8.61s-3.78,8.61-8.73,8.61-8.7-3.89-8.7-8.61,3.78-8.61,8.7-8.61ZM47.06,74.63c2.91,0,5.27-2.44,5.26-5.43,0-2.99-2.36-5.41-5.28-5.42-2.91,0-5.28,2.42-5.28,5.41,0,1.44.56,2.82,1.55,3.84.98,1.01,2.33,1.59,3.74,1.59M47.06,60.59c4.93,0,8.72,3.89,8.72,8.61s-3.8,8.61-8.72,8.61-8.73-3.89-8.73-8.61,3.78-8.61,8.73-8.61ZM67.31,64.15h-3.56v4.36h3.56c.57.03,1.12-.19,1.53-.58.41-.4.65-.95.65-1.54.02-.6-.2-1.18-.62-1.61-.41-.42-.98-.65-1.56-.63h0ZM60.31,61.4c0-.23.18-.41.4-.41h6.7c3.19,0,5.5,2.4,5.5,5.42.03,2.04-1.09,3.92-2.87,4.83l3.09,5.61c.09.13.09.3.01.44-.07.14-.22.21-.38.2h-2.71c-.15,0-.3-.08-.36-.22l-2.98-5.55h-2.98v5.33c0,.22-.17.41-.4.41h-2.61c-.22,0-.4-.19-.4-.41l-.02-15.64h0ZM81.88,64.22v10.14h2.52c1.3-.02,2.54-.56,3.43-1.51.91-.96,1.4-2.24,1.38-3.56.04-1.33-.45-2.62-1.36-3.58-.9-.95-2.15-1.49-3.46-1.48h-2.52ZM84.4,61.04c4.7,0,8.26,3.65,8.26,8.25s-3.56,8.25-8.26,8.25h-5.55c-.22,0-.4-.19-.4-.41v-15.66c0-.23.18-.41.4-.41l5.55-.02h0ZM103.15,65.07l-1.95,5.42h3.9l-1.95-5.42ZM100.06,73.56l-1.28,3.61c-.05.18-.22.29-.4.28h-2.77c-.14.01-.28-.05-.36-.17-.08-.12-.1-.28-.03-.41l5.99-15.64c.06-.17.22-.28.4-.27h3.1c.18-.01.34.1.4.27l5.99,15.64c.06.13.05.29-.04.41-.08.12-.22.18-.36.17h-2.77c-.18,0-.35-.11-.4-.28l-1.28-3.61h-6.18ZM114.3,65.42c0-2.59,2.18-4.83,5.62-4.83,1.85-.04,3.65.65,4.99,1.93.17.16.17.42.02.59,0,0-.01.01-.02.02l-1.53,1.56c-.15.16-.4.16-.56,0,0,0,0,0,0,0-.72-.68-1.67-1.06-2.66-1.08-1.38,0-2.39.82-2.39,1.77,0,3.06,8.13,1.29,8.13,7.19,0,2.99-2.2,5.24-6.08,5.24-2.18.02-4.27-.84-5.8-2.39-.17-.16-.17-.42-.02-.59,0,0,.01-.01.02-.02l1.48-1.52c.15-.16.4-.17.56-.02,0,0,.01.01.02.02.93.93,2.19,1.46,3.51,1.47,1.72,0,2.85-.94,2.85-2.13,0-3.06-8.13-1.29-8.13-7.19M140.63,61.37v6.19h-6.88v-6.19c0-.22-.18-.41-.4-.41h-2.61c-.22,0-.4.19-.4.41v15.64c0,.23.18.41.4.41h2.61c.22,0,.4-.18.4-.41v-6.29h6.88v6.29c0,.23.18.41.4.41h2.61c.22,0,.4-.18.4-.41v-15.64c0-.22-.18-.41-.4-.41h-2.61c-.22,0-.4.19-.39.41h0Z"/>
  <path class="cls-1" d="M103.6,10.49C100.11,4.01,93.28-.02,85.86,0H29.69c-.78,0-1.47.47-1.77,1.19-.3.71-.13,1.53.42,2.07l12.24,12.16c1.08,1.08,2.55,1.68,4.08,1.68h39.6c2.82-.03,5.13,2.21,5.16,5,.03,2.79-2.23,5.07-5.05,5.1h-27.3c-.77,0-1.48.47-1.78,1.18-.3.71-.14,1.54.41,2.08l12.25,12.17c1.09,1.08,2.56,1.68,4.08,1.68h12.35c16.06,0,28.21-16.98,19.24-33.83"/>
</svg>